<svg xmlns="http://www.w3.org/2000/svg" xmlns:xlink="http://www.w3.org/1999/xlink" viewBox="0 0 500 500"><defs><clipPath id="freepik--clip-path--inject-89"><rect x="258.48" y="97.33" width="129.48" height="150.84" style="fill:none"></rect></clipPath><clipPath id="freepik--clip-path-2--inject-89"><path d="M280.2,168.21s-9.07,18.56-10.47,26.23-2.51,15.07-1,15.07S295,196.39,295,196.39l3.91,6.84-6.84,48.55s10.19,9.48,25,8.65,32.65-12,32.65-12l-12.84-42.69,4.75-9.77s25.39,13.4,31,15.63,6.27,3.35,6.55,2.23-5-36.83-5-36.83l-8.51,1.12s1.81,17.16,1.12,17.16-5.44-6.84-12.28-12.28-15.48-15.34-21.2-17.72-14.65-3.62-20.37-1.81-9.07,9.77-9.07,9.77l-19.11,11.3,5-12.28Z" style="fill:#263238;stroke:#263238;stroke-linecap:round;stroke-linejoin:round"></path></clipPath></defs><g id="freepik--background-simple--inject-89"><path d="M443.42,311.51S460.72,238.09,413,174,281.75,85,214.7,62.92,84.78,66.11,61.12,122.45,85,209.23,95.41,282.88s2,94.85,50.85,151,149.37,55,217.39-2.5S443.42,311.51,443.42,311.51Z" style="fill:#3E6FF4"></path><path d="M443.42,311.51S460.72,238.09,413,174,281.75,85,214.7,62.92,84.78,66.11,61.12,122.45,85,209.23,95.41,282.88s2,94.85,50.85,151,149.37,55,217.39-2.5S443.42,311.51,443.42,311.51Z" style="fill:#fff;opacity:0.7000000000000001"></path></g><g id="freepik--Portfolio--inject-89"><rect x="117.51" y="81.4" width="275.68" height="343.22" rx="4.05" style="fill:#fff;stroke:#263238;stroke-linecap:round;stroke-linejoin:round"></rect><path d="M121.56,81.4H389.14a4.05,4.05,0,0,1,4.05,4.05v6.29a0,0,0,0,1,0,0H117.51a0,0,0,0,1,0,0V85.46A4.05,4.05,0,0,1,121.56,81.4Z" style="fill:#263238;stroke:#263238;stroke-linecap:round;stroke-linejoin:round"></path><path d="M131.2,87.46a2.42,2.42,0,1,0-2.42,2.42A2.41,2.41,0,0,0,131.2,87.46Z" style="fill:#fff"></path><path d="M142.58,87.46a2.42,2.42,0,1,0-2.41,2.42A2.41,2.41,0,0,0,142.58,87.46Z" style="fill:#fff"></path><path d="M154,87.46a2.42,2.42,0,1,0-2.41,2.42A2.41,2.41,0,0,0,154,87.46Z" style="fill:#fff"></path><rect x="128.76" y="107.61" width="247.39" height="139.86" style="opacity:0.1"></rect><line x1="134.81" y1="120.8" x2="211.26" y2="120.8" style="fill:none;stroke:#263238;stroke-linecap:round;stroke-linejoin:round;stroke-width:3px"></line><line x1="134.81" y1="153.17" x2="178.89" y2="153.17" style="fill:none;stroke:#263238;stroke-linecap:round;stroke-linejoin:round"></line><line x1="134.81" y1="160.75" x2="178.89" y2="160.75" style="fill:none;stroke:#263238;stroke-linecap:round;stroke-linejoin:round"></line><line x1="134.81" y1="168.32" x2="178.89" y2="168.32" style="fill:none;stroke:#263238;stroke-linecap:round;stroke-linejoin:round"></line><line x1="134.81" y1="175.9" x2="178.89" y2="175.9" style="fill:none;stroke:#263238;stroke-linecap:round;stroke-linejoin:round"></line><line x1="134.81" y1="183.48" x2="178.89" y2="183.48" style="fill:none;stroke:#263238;stroke-linecap:round;stroke-linejoin:round"></line><line x1="134.81" y1="131.82" x2="242.25" y2="131.82" style="fill:none;stroke:#263238;stroke-linecap:round;stroke-linejoin:round;stroke-width:3px"></line><line x1="382.06" y1="248.18" x2="125.17" y2="248.18" style="fill:none;stroke:#263238;stroke-linecap:round;stroke-linejoin:round"></line><line x1="382.06" y1="412.86" x2="125.17" y2="412.86" style="fill:none;stroke:#263238;stroke-linecap:round;stroke-linejoin:round"></line><path d="M137.12,235.76h36a3.17,3.17,0,0,1,3.17,3.17v9.27a0,0,0,0,1,0,0H134a0,0,0,0,1,0,0v-9.27A3.17,3.17,0,0,1,137.12,235.76Z" style="fill:#263238"></path><path d="M182.28,235.76h36a3.17,3.17,0,0,1,3.17,3.17v9.27a0,0,0,0,1,0,0H179.11a0,0,0,0,1,0,0v-9.27A3.17,3.17,0,0,1,182.28,235.76Z" style="fill:#263238"></path><path d="M227.43,235.76h36a3.17,3.17,0,0,1,3.17,3.17v9.27a0,0,0,0,1,0,0H224.26a0,0,0,0,1,0,0v-9.27A3.17,3.17,0,0,1,227.43,235.76Z" style="fill:#263238"></path><line x1="140.8" y1="242.3" x2="168.79" y2="242.3" style="fill:none;stroke:#3E6FF4;stroke-linecap:round;stroke-linejoin:round;stroke-width:2px"></line><line x1="185.92" y1="242.3" x2="213.91" y2="242.3" style="fill:none;stroke:#3E6FF4;stroke-linecap:round;stroke-linejoin:round;stroke-width:2px"></line><line x1="231.03" y1="242.3" x2="259.02" y2="242.3" style="fill:none;stroke:#3E6FF4;stroke-linecap:round;stroke-linejoin:round;stroke-width:2px"></line><path d="M248.28,327.3h-121V259h121ZM376.15,259h-121V327.3h121ZM206,333H127.25v68.31H206Zm170.12,0H212.65v68.31h163.5Z" style="fill:#3E6FF4"></path><path d="M248.28,327.3h-121V259h121ZM376.15,259h-121V327.3h121ZM206,333H127.25v68.31H206Zm170.12,0H212.65v68.31h163.5Z" style="fill:#fff;opacity:0.4"></path><ellipse cx="253.58" cy="444.08" rx="134.43" ry="6.31" style="fill:#263238"></ellipse></g><g id="freepik--Character--inject-89"><g style="clip-path:url(#freepik--clip-path--inject-89)"><path d="M280.2,168.21s-9.07,18.56-10.47,26.23-2.51,15.07-1,15.07S295,196.39,295,196.39l3.91,6.84-6.84,48.55s10.19,9.48,25,8.65,32.65-12,32.65-12l-12.84-42.69,4.75-9.77s25.39,13.4,31,15.63,6.27,3.35,6.55,2.23-5-36.83-5-36.83l-8.51,1.12s1.81,17.16,1.12,17.16-5.44-6.84-12.28-12.28-15.48-15.34-21.2-17.72-14.65-3.62-20.37-1.81-9.07,9.77-9.07,9.77l-19.11,11.3,5-12.28Z" style="fill:#263238"></path><g style="clip-path:url(#freepik--clip-path-2--inject-89)"><path d="M283.2,168.53s-6.55,15.35-10,25.17a78.19,78.19,0,0,0-4.09,18.21" style="fill:none;stroke:#3E6FF4;stroke-linecap:round;stroke-linejoin:round"></path><path d="M286.47,169.15a202.15,202.15,0,0,0-7.16,20.25c-2.45,9-4.7,21.28-4.7,21.28" style="fill:none;stroke:#3E6FF4;stroke-linecap:round;stroke-linejoin:round"></path><line x1="284.63" y1="185.51" x2="278.49" y2="208.02" style="fill:none;stroke:#3E6FF4;stroke-linecap:round;stroke-linejoin:round"></line><line x1="283.2" y1="190.42" x2="297.93" y2="180.6" style="fill:none;stroke:#3E6FF4;stroke-linecap:round;stroke-linejoin:round"></line><line x1="281.97" y1="196.15" x2="297.93" y2="186.54" style="fill:none;stroke:#3E6FF4;stroke-linecap:round;stroke-linejoin:round"></line><line x1="280.54" y1="201.47" x2="297.11" y2="192.27" style="fill:none;stroke:#3E6FF4;stroke-linecap:round;stroke-linejoin:round"></line><line x1="299.16" y1="183.47" x2="295.89" y2="196.56" style="fill:none;stroke:#3E6FF4;stroke-linecap:round;stroke-linejoin:round"></line><line x1="303.46" y1="184.49" x2="295.07" y2="251.19" style="fill:none;stroke:#3E6FF4;stroke-linecap:round;stroke-linejoin:round"></line><line x1="308.37" y1="176.92" x2="302.64" y2="255.28" style="fill:none;stroke:#3E6FF4;stroke-linecap:round;stroke-linejoin:round"></line><line x1="313.89" y1="170.37" x2="310.62" y2="257.94" style="fill:none;stroke:#3E6FF4;stroke-linecap:round;stroke-linejoin:round"></line><line x1="319.21" y1="174.06" x2="319" y2="258.76" style="fill:none;stroke:#3E6FF4;stroke-linecap:round;stroke-linejoin:round"></line><path d="M327,177.94s-.81,77.55-.81,78.57" style="fill:none;stroke:#3E6FF4;stroke-linecap:round;stroke-linejoin:round"></path><path d="M333.74,179.58s-.21,17.8,0,28.64S337.83,253,337.83,253" style="fill:none;stroke:#3E6FF4;stroke-linecap:round;stroke-linejoin:round"></path><line x1="341.71" y1="182.44" x2="338.65" y2="200.45" style="fill:none;stroke:#3E6FF4;stroke-linecap:round;stroke-linejoin:round"></line><line x1="338.65" y1="215.18" x2="346.42" y2="248.12" style="fill:none;stroke:#3E6FF4;stroke-linecap:round;stroke-linejoin:round"></line><line x1="341.51" y1="192.06" x2="366.47" y2="205.97" style="fill:none;stroke:#3E6FF4;stroke-linecap:round;stroke-linejoin:round"></line><line x1="341.02" y1="185.09" x2="364.83" y2="199.43" style="fill:none;stroke:#3E6FF4;stroke-linecap:round;stroke-linejoin:round"></line><line x1="344.78" y1="179.79" x2="365.45" y2="195.13" style="fill:none;stroke:#3E6FF4;stroke-linecap:round;stroke-linejoin:round"></line><line x1="367.9" y1="183.67" x2="369.34" y2="208.43" style="fill:none;stroke:#3E6FF4;stroke-linecap:round;stroke-linejoin:round"></line><line x1="371.18" y1="181.83" x2="373.63" y2="209.66" style="fill:none;stroke:#3E6FF4;stroke-linecap:round;stroke-linejoin:round"></line><line x1="374.25" y1="182.24" x2="378.75" y2="211.7" style="fill:none;stroke:#3E6FF4;stroke-linecap:round;stroke-linejoin:round"></line></g><path d="M280.2,168.21s-9.07,18.56-10.47,26.23-2.51,15.07-1,15.07S295,196.39,295,196.39l3.91,6.84-6.84,48.55s10.19,9.48,25,8.65,32.65-12,32.65-12l-12.84-42.69,4.75-9.77s25.39,13.4,31,15.63,6.27,3.35,6.55,2.23-5-36.83-5-36.83l-8.51,1.12s1.81,17.16,1.12,17.16-5.44-6.84-12.28-12.28-15.48-15.34-21.2-17.72-14.65-3.62-20.37-1.81-9.07,9.77-9.07,9.77l-19.11,11.3,5-12.28Z" style="fill:none;stroke:#263238;stroke-linecap:round;stroke-linejoin:round"></path><path d="M315.49,149.94l1,15.2,2.79,4.05s2.65,9.07,3.07,8.51,2.92-8.37,2.92-8.37l5-6,.83-16.18S327.91,153.57,315.49,149.94Z" style="fill:#fff;stroke:#263238;stroke-linecap:round;stroke-linejoin:round"></path><path d="M320.23,114.28a30.1,30.1,0,0,0-9.76,8.23c-4.05,5.44-2.1,14.37-2.1,18.28s3.91,9.9,6.56,12.41,5.72,3.91,9.07,3.07,8.93-6.14,10-13,1.26-15.35-.28-19.67-9.06-8.93-10-9.49S321.63,112.75,320.23,114.28Z" style="fill:#263238;stroke:#263238;stroke-linecap:round;stroke-linejoin:round"></path><path d="M320,101.67s-9.06,3.21-14.23,9.35S299,120.36,299,126.36s3.35,41.3,3.35,41.3-4.89-.7-7.4,3.2-1.11,9.21,1.4,10.75a10.84,10.84,0,0,0,4.32,1.67s2.93,3.77,9.35,2.79,7-4.46,6.83-11.3,0-48.69,0-48.69.7-2.79,2.65-3.76,10.05.56,10.33,7.53-1.4,33.48-1.4,42.69,6.7,11.58,12.56,12.55S351.9,178,351.2,171.42s-5.3-8.51-7-8.65l-1.68-.14a75.42,75.42,0,0,1,1.26-13.53c1.39-7.95,3.63-16.46,1-26.09s-9.21-17.71-14.65-19.67S322.6,100.69,320,101.67Z" style="fill:#3E6FF4;stroke:#263238;stroke-linecap:round;stroke-linejoin:round"></path><path d="M304.86,161.93c0,1.8,0,2.87,0,2.87" style="fill:none;stroke:#263238;stroke-linecap:round;stroke-linejoin:round"></path><path d="M309,114c-4.23,3.58-4.88,8.7-4.65,17.68.19,7.58.38,19.55.48,26.84" style="fill:none;stroke:#263238;stroke-linecap:round;stroke-linejoin:round"></path><path d="M322.83,111.57v-6.83s-1.13,2.85-9.39,6.55c-.54.24-1.05.49-1.53.74" style="fill:none;stroke:#263238;stroke-linecap:round;stroke-linejoin:round"></path><path d="M338.76,159.39a8.81,8.81,0,0,0,.87,4.27" style="fill:none;stroke:#263238;stroke-linecap:round;stroke-linejoin:round"></path><path d="M323.12,106.73s0,3.14,9.39,7.41,12.81,17.93,10.53,27c-1.28,5.12-3,10.06-3.82,14.27" style="fill:none;stroke:#263238;stroke-linecap:round;stroke-linejoin:round"></path><path d="M306.69,183.89c-7.53-.25-10.92-9-5.2-13.11,6-4.27,10.81.85,10.81.85L311.16,150" style="fill:none;stroke:#263238;stroke-linecap:round;stroke-linejoin:round"></path><path d="M306,178.18s-1.42-4.55,2.56-4.55c3.37,0,6.34,6.92,2.17,9.4" style="fill:none;stroke:#263238;stroke-linecap:round;stroke-linejoin:round"></path><path d="M335.36,148.58l2,19.64s4-4.27,8.54-.57,4.27,12.81-2.56,14.23-9.11-3.13-9.11-7.11,6.55-5.13,8.25-3.14-.56,6.27-2,5.7" style="fill:none;stroke:#263238;stroke-linecap:round;stroke-linejoin:round"></path><path d="M320.23,112.13a30.1,30.1,0,0,0-9.76,8.23c-4.05,5.44-2.1,14.37-2.1,18.28s3.91,9.9,6.56,12.41,5.72,3.91,9.07,3.07,8.93-6.13,10-13,1.26-15.35-.28-19.67-9.06-8.93-10-9.49S321.63,110.6,320.23,112.13Z" style="fill:#fff;stroke:#263238;stroke-linecap:round;stroke-linejoin:round"></path><path d="M304.33,131.66c0,3.82,4,7.54,7.81,7.54a7,7,0,0,0,7-6.91c0-3.81-3.13-5.65-7-5.65S304.33,127.85,304.33,131.66Z" style="fill:#fff;stroke:#263238;stroke-linecap:round;stroke-linejoin:round"></path><path d="M322.92,143.1s-2.51-1.95-3.49-.28.28,4.75,2,5.44,4.6,1.12,5.16-3.48S322.92,143.1,322.92,143.1Z" style="fill:#263238;stroke:#263238;stroke-linecap:round;stroke-linejoin:round"></path><path d="M324,145.75a1.12,1.12,0,1,0-1.11,1.12A1.11,1.11,0,0,0,324,145.75Z" style="fill:#263238;stroke:#263238;stroke-linecap:round;stroke-linejoin:round"></path><path d="M339.07,131.66c0,3.82-4,7.54-7.82,7.54a6.94,6.94,0,0,1-7-6.91c0-3.81,3.12-5.65,7-5.65S339.07,127.85,339.07,131.66Z" style="fill:#263238;stroke:#263238;stroke-linecap:round;stroke-linejoin:round"></path><line x1="318.7" y1="129.85" x2="324.28" y2="129.85" style="fill:#fff;stroke:#263238;stroke-linecap:round;stroke-linejoin:round;stroke-width:1.5px"></line><path d="M319.12,132.29s2.23-3,5.16,0" style="fill:#fff;stroke:#263238;stroke-linecap:round;stroke-linejoin:round;stroke-width:1.5px"></path><path d="M286.61,142.54l4.47,8.51-6.84,14,6.7,2.79s6.55-17.44,7.95-19.67,6.56-9.21,7-9.49,3.63-4,2.65-4.74-3.34.83-5,2.93-4,4-4.6,3.76-7.67-4.88-8.65-5S286.61,137.38,286.61,142.54Z" style="fill:#fff;stroke:#263238;stroke-linecap:round;stroke-linejoin:round"></path><rect x="290.94" y="123.71" width="27.9" height="18.55" style="fill:#263238;stroke:#263238;stroke-linecap:round;stroke-linejoin:round"></rect><rect x="290.94" y="123.71" width="27.9" height="4.74" style="fill:#fff;stroke:#263238;stroke-linecap:round;stroke-linejoin:round"></rect><path d="M311,133.34a5.73,5.73,0,1,0-5.72,5.72A5.72,5.72,0,0,0,311,133.34Z" style="fill:#fff;stroke:#263238;stroke-linecap:round;stroke-linejoin:round"></path><path d="M309.55,133.34a4.25,4.25,0,1,0-4.24,4.25A4.24,4.24,0,0,0,309.55,133.34Z" style="fill:#fff;stroke:#263238;stroke-linecap:round;stroke-linejoin:round"></path><path d="M286.19,136.13c-.06-.75,2.51-11.72,3.63-13s4.88-3.07,5.16-2.09.28,1.54-.83,2.09-2.93,1.26-3.21,1.68-1.82,8.51-1.82,8.51l2,2.65-4.89,3.35A20.83,20.83,0,0,0,286.19,136.13Z" style="fill:#fff;stroke:#263238;stroke-linecap:round;stroke-linejoin:round"></path><path d="M290.38,143.24l4.6-1a24.48,24.48,0,0,1,2.93,3.2c.42.84,1.12-.13,1.54-.55s0-1.4-.7-2.93-1.95-4.19-2.65-4.75-5.58.14-5.58.14l3.63-3.48s2.37,1.67,4.46,3.2,1.12-.14,1.39-.83-4.6-4.19-5.3-4.75-1.11-1.11-2.09-.41-7.25,6.69-7.25,6.69-1,.28.42,3.07a14.45,14.45,0,0,0,2.79,4" style="fill:#fff;stroke:#263238;stroke-linecap:round;stroke-linejoin:round"></path><path d="M289.12,140.31s5.86-1.67,6.84-1a26,26,0,0,1,3.07,3.34" style="fill:#fff;stroke:#263238;stroke-linecap:round;stroke-linejoin:round"></path><polygon points="282.29 159.84 294.42 166.82 290.66 176.44 278.8 170.45 282.29 159.84" style="fill:#fff;stroke:#263238;stroke-linecap:round;stroke-linejoin:round"></polygon><path d="M366.69,175.05s-3.35-13-5.72-19a110.75,110.75,0,0,1-4.47-13c-.14-1.11,1.54-.83,2.51,1.26s4.89,10.32,5.45,10.46,2.92.14,2.92-.7-2.37-9.48-2.37-11,1.4-.14,2,1,2.79,8.79,2.93,9.21,3.2-.1,4.17,1.21c1.25,1.7.56,3.48,0,5a27.13,27.13,0,0,0-1.79,3.31,11.49,11.49,0,0,1-1.61,2.69l1.16,9.4Z" style="fill:#fff;stroke:#263238;stroke-linecap:round;stroke-linejoin:round"></path><path d="M373.8,153s3.07-.28,3.07,1.53-1,5.86-1.95,6.7-1.4.56-1.4-2.09S373.8,153,373.8,153Z" style="fill:#fff;stroke:#263238;stroke-linecap:round;stroke-linejoin:round"></path><path d="M369.9,153.29s.27-2.79,2.65-2.65,1.95,3.48,1.81,6.55-.56,4.89-1.4,4.47-1.53-6-1.67-7.12-1-.14-1-.14" style="fill:#fff;stroke:#263238;stroke-linecap:round;stroke-linejoin:round"></path><path d="M365.57,161s2.93-3.35,5-5.44,4.75-2.93,4.19-1.12-3.63,4.47-3.63,4.47,0,3.48-.84,5-.69,2.93-2.93,2.37" style="fill:#fff;stroke:#263238;stroke-linecap:round;stroke-linejoin:round"></path><polygon points="363.76 172.96 364.18 182.3 375.48 180.91 375.89 171.56 363.76 172.96" style="fill:#fff;stroke:#263238;stroke-linecap:round;stroke-linejoin:round"></polygon><path d="M325.08,126.13s2.91-4.23,7.54-2.91" style="fill:none;stroke:#263238;stroke-linecap:round;stroke-linejoin:round;stroke-width:2px"></path><path d="M318.47,121.11s-2.38-2.91-6.47-.66" style="fill:none;stroke:#263238;stroke-linecap:round;stroke-linejoin:round;stroke-width:2px"></path></g></g></svg>